<mxfile host="app.diagrams.net" modified="2023-11-12T21:57:42.852Z" agent="Mozilla/5.0 (Windows NT 10.0; Win64; x64) AppleWebKit/537.36 (KHTML, like Gecko) Chrome/117.0.0.0 Safari/537.36 Edg/117.0.2045.60" etag="jz3QoaJjLRFWdGUuDCL-" version="22.1.0" type="github">
  <diagram name="Page-1" id="hvkSNkSnapVHsSa8nqqC">
    <mxGraphModel dx="2053" dy="639" grid="1" gridSize="10" guides="1" tooltips="1" connect="1" arrows="1" fold="1" page="1" pageScale="1" pageWidth="827" pageHeight="1169" math="0" shadow="0">
      <root>
        <mxCell id="0" />
        <mxCell id="1" parent="0" />
        <mxCell id="MX3xwKC8E9TbjmYPHGwx-33" value="" style="shape=image;verticalLabelPosition=bottom;labelBackgroundColor=default;verticalAlign=top;aspect=fixed;imageAspect=0;image=data:image/png,iVBORw0KGgoAAAANSUhEUgAAAQ8AAAC6CAMAAACHgTh+AAABAlBMVEX///+goaI+Pj5ZtNk5mca41DJ/ugA5OTlra2u0tbWio6R+f4BPpMlzuthPmr6ioKB3tgCbnJ210iO10iE+OzkvlsSz0RUsLCw+ODT4+Piaxh42NjaLp7RQsdglk8Pt7e3k7/Sx0S3d68vR44vG3W30+Ob4+/G71kG910v7/ffw9+Hl5eWTwxZERESSxDXb29vIyMi+vr46h6xjsdKao6c7c489T1g9VmN4rMNxrsg8a4PV5/Ciy+Hm8MXe7LPY56bW5pjN4X/D3GXi7rvA2VmQkJBdXV0fHx+SwgC72Y/F3qCZx0ilzWWt0XXN46nW6Ls9XW06f6BvjJm00+WEwt2s0OS53QFCAAAHJ0lEQVR4nO3da1faShSA4QKpCugJcomkkJKigCIICioSBAXKqfaiHvD//5UzE0DZuUBCgEzsfr90gaFlHmYmMbarnz5hGIZhGIb9HeVzudxtu9Pp3B3eHx11+/1+t3t0dEie6LRvydfybr/BDZXPtjv3/eNCVBCEWCwWVfs8SX0Qi5EvCdHjfveu08vlT9x+x+sqf9s+7BeIwvv4F6TSFPqH7eIHmy0nxfbRMZWwCKFlEYT+fbvo9ihWVLHTjS5LAVAKRz3Pz5PsYUGIOaSYNel3cm4PafmKdwXB6bzQmQj9tje32NvuyjHGxWL33ttLbo+FtWCoRYWut0Ty3TVqqAn3Htpbe2taKbNFY7duD9Nqh+ueHOOEO7cHaq0NcXgFpLcpDgLihSWz/q3jvYLbg13c7eamB5kgWbeHu7DOyi7PLRRruz3chfU26tFze7gGZcCj4kbXC7xMFTc5bNNO4cPuBjfUPvyj4SfjVlX4MGd1gnyjfdGkPmmVQzM9tJ+MS33XPF6wYqhBqbRFi2wZNHmyVKI48zm0u4fmk3GpgfZjKZrcIaUQRgKmUZqSqYruaiwT3NSQ57YT1j6j//b2G5UwnA6WMkAR+ro7ZUFGPP7Vz9Pe5xi0WEEE5e33jH3WX3mc7jPikfIbbOx3Y5FvXxxMC31jklj0Tn/PUPSx4rG9PTA48590CsKPlWLQIls/YoWOwR1UMeTzseLhTxmBkI31YSuyWpBI5OzR8A67GNpnyMOfKleMv1h8PIusyIT8Pj8fTe6bZsjsYMnDv31g+mbyTw/UxAkKffnZQ9b0lmll38eYh99/sDPncvkk+/hraxkU+ppI6fdjcc4PXcTgmIMtD3/qIDT/wHz2z8NYZTHM5KjSr4enRT9aqE40WPMgU8R/buH4XPbpz8PvX2fTMevbKv38/fD4lLXys8lK6I2DOQ8iUrYi8lY+VyxmZysW7f1NmFkNFj3IvpoKbeo2hFj1zWow6aHuI+FNfKN5er4PNVj1oCLb302uR1bU6blPi8Gwh0ri/15dz8IRKwTDQINpD5UktROqrNZEPK0G940xmPeguytZOQNfdTX3NTOVatBkYnjFY2KSKodDTlBEShEynxee8lBNCMpBeRAOnVcydhaQmDmlEr7FFN7ymM4UokJYdsK+4Hm1ksmIBjYiKXNKGKrnYwhLEp70eJ8s1OXgIOUvlweDwQ5pP6gWCpHv2/cnWXfwtge0UUuF7Q/+Q3pMWcIh9EAP9EAP9EAPGHrA0AOGHjD0gKEHDD1g6AFDDxh6wNADhh4w9IChBww9YOgBQw8YesDQA4YeMPSAoQcMPWDoAUMPGHrA0AOGHjD0gKEHDD1g6AFDDxh6wNADhh4w9IChBww9YOgBQw8YesDQA4YeMPSAoQfMjkfcrgf/oT3KzaRNj4YdEK95JC+4K8MZYubBN6S0DRCPeSSbHJew48GnA4FA/aN6xK850ovRijH24OuEI1D7oB7xK44zAzH0GHMQEKsrhmfD48LsrAE5ytykSz2IkceUIxC4sQbCp/fcplD7xwpI8op7Sz9DDDzUvWNSzcppl09LjHhwiSvj0+gMxzM3kw5Q78E3ArPVF4LQF7DiwXHN5LwpEo9fcqDEMwTUevD1WgC24DqEr98EWPLgLsynSDx5neC0vfiTph68rxHQVZszRfjJ4mLIg2yTZcM5Ek9eXeg01OP978fPevB1Aw11W63zhiREYzKbmPIgI7xKakjiyfi1sQY8fupBBpy+MdZQRdI+LQl9xdvaYsyDrJrLa3+SDJJGfvVfv5hiTI6/itPDk+EQT0ZWn4cxJakTg7fgK5jzUMf4ctlsPj83my/mMwMeTw7/L51u3Gj3UJNqN41GmqZ7BZMeS7VrjWJB6IEe6IEe6IEe6IEe6IEe6KENPWDoAUMPGHrA0AOGHjD0gKEHDD1g6AFDDxh6wNADhh4w9IChBww9YOgBQw8YesDQA4YeMPSAoQcMPWDoAUMPGHrA0AOGHrCa/l8vuOQxcptCrcWKh/TqNoWa8pUVD8VtinHOOVa0XtyGmDR0PkFW4SEN3YaYtut4B1mFBxtnF5rseIKswsPOf1S+5hxvqc49JNlthNmUr86WjGMPtjjIkuEcgTj0kPZktwG0iTUna8aZh9Rye/RGDRPLTxEnHlKAkeswbeLe0rvI8h6S1GLoxKJJ2V1SZGkPaSS7Pei5KbWlRJbzkFjXoMmjhH2SZTzISpHdHqylxKHtZWPbQ5L2huzuG7qUEWeLxJ6HJAU8MjVmUlq7Xy2bWPeQJKnWYvQEuyj5tcZZM7HoQSbGaCi7PSxHKWOTBSiLPaQPYDFNHrYoyhyVeR4SpdhrfRCLt2TldVTjEiqLzsXIQ5KmEors9ptfX7IybI1qu9RFLaG2K2kL7I0ohIfOqQ6TZUUZDl9btFFr3OvrcDhUFPkvYmC8/wFvqZfJX8CkCwAAAABJRU5ErkJggg==;" vertex="1" parent="1">
          <mxGeometry x="-165.7" y="130" width="145.7" height="100" as="geometry" />
        </mxCell>
        <mxCell id="MX3xwKC8E9TbjmYPHGwx-14" value="" style="image;aspect=fixed;html=1;points=[];align=center;fontSize=12;image=img/lib/azure2/analytics/Azure_Databricks.svg;" vertex="1" parent="1">
          <mxGeometry x="-280" y="130" width="92.36" height="100" as="geometry" />
        </mxCell>
        <mxCell id="MX3xwKC8E9TbjmYPHGwx-40" value="" style="edgeStyle=orthogonalEdgeStyle;rounded=0;orthogonalLoop=1;jettySize=auto;html=1;" edge="1" parent="1" source="MX3xwKC8E9TbjmYPHGwx-15" target="MX3xwKC8E9TbjmYPHGwx-19">
          <mxGeometry relative="1" as="geometry" />
        </mxCell>
        <mxCell id="MX3xwKC8E9TbjmYPHGwx-15" value="" style="shape=image;verticalLabelPosition=bottom;labelBackgroundColor=default;verticalAlign=top;aspect=fixed;imageAspect=0;image=data:image/png,iVBORw0KGgoAAAANSUhEUgAAAQ8AAAC6CAMAAACHgTh+AAABAlBMVEX///+goaI+Pj5ZtNk5mca41DJ/ugA5OTlra2u0tbWio6R+f4BPpMlzuthPmr6ioKB3tgCbnJ210iO10iE+OzkvlsSz0RUsLCw+ODT4+Piaxh42NjaLp7RQsdglk8Pt7e3k7/Sx0S3d68vR44vG3W30+Ob4+/G71kG910v7/ffw9+Hl5eWTwxZERESSxDXb29vIyMi+vr46h6xjsdKao6c7c489T1g9VmN4rMNxrsg8a4PV5/Ciy+Hm8MXe7LPY56bW5pjN4X/D3GXi7rvA2VmQkJBdXV0fHx+SwgC72Y/F3qCZx0ilzWWt0XXN46nW6Ls9XW06f6BvjJm00+WEwt2s0OS53QFCAAAHJ0lEQVR4nO3da1faShSA4QKpCugJcomkkJKigCIICioSBAXKqfaiHvD//5UzE0DZuUBCgEzsfr90gaFlHmYmMbarnz5hGIZhGIb9HeVzudxtu9Pp3B3eHx11+/1+t3t0dEie6LRvydfybr/BDZXPtjv3/eNCVBCEWCwWVfs8SX0Qi5EvCdHjfveu08vlT9x+x+sqf9s+7BeIwvv4F6TSFPqH7eIHmy0nxfbRMZWwCKFlEYT+fbvo9ihWVLHTjS5LAVAKRz3Pz5PsYUGIOaSYNel3cm4PafmKdwXB6bzQmQj9tje32NvuyjHGxWL33ttLbo+FtWCoRYWut0Ty3TVqqAn3Htpbe2taKbNFY7duD9Nqh+ueHOOEO7cHaq0NcXgFpLcpDgLihSWz/q3jvYLbg13c7eamB5kgWbeHu7DOyi7PLRRruz3chfU26tFze7gGZcCj4kbXC7xMFTc5bNNO4cPuBjfUPvyj4SfjVlX4MGd1gnyjfdGkPmmVQzM9tJ+MS33XPF6wYqhBqbRFi2wZNHmyVKI48zm0u4fmk3GpgfZjKZrcIaUQRgKmUZqSqYruaiwT3NSQ57YT1j6j//b2G5UwnA6WMkAR+ro7ZUFGPP7Vz9Pe5xi0WEEE5e33jH3WX3mc7jPikfIbbOx3Y5FvXxxMC31jklj0Tn/PUPSx4rG9PTA48590CsKPlWLQIls/YoWOwR1UMeTzseLhTxmBkI31YSuyWpBI5OzR8A67GNpnyMOfKleMv1h8PIusyIT8Pj8fTe6bZsjsYMnDv31g+mbyTw/UxAkKffnZQ9b0lmll38eYh99/sDPncvkk+/hraxkU+ppI6fdjcc4PXcTgmIMtD3/qIDT/wHz2z8NYZTHM5KjSr4enRT9aqE40WPMgU8R/buH4XPbpz8PvX2fTMevbKv38/fD4lLXys8lK6I2DOQ8iUrYi8lY+VyxmZysW7f1NmFkNFj3IvpoKbeo2hFj1zWow6aHuI+FNfKN5er4PNVj1oCLb302uR1bU6blPi8Gwh0ri/15dz8IRKwTDQINpD5UktROqrNZEPK0G940xmPeguytZOQNfdTX3NTOVatBkYnjFY2KSKodDTlBEShEynxee8lBNCMpBeRAOnVcydhaQmDmlEr7FFN7ymM4UokJYdsK+4Hm1ksmIBjYiKXNKGKrnYwhLEp70eJ8s1OXgIOUvlweDwQ5pP6gWCpHv2/cnWXfwtge0UUuF7Q/+Q3pMWcIh9EAP9EAP9EAPGHrA0AOGHjD0gKEHDD1g6AFDDxh6wNADhh4w9IChBww9YOgBQw8YesDQA4YeMPSAoQcMPWDoAUMPGHrA0AOGHjD0gKEHDD1g6AFDDxh6wNADhh4w9IChBww9YOgBQw8YesDQA4YeMPSAoQfMjkfcrgf/oT3KzaRNj4YdEK95JC+4K8MZYubBN6S0DRCPeSSbHJew48GnA4FA/aN6xK850ovRijH24OuEI1D7oB7xK44zAzH0GHMQEKsrhmfD48LsrAE5ytykSz2IkceUIxC4sQbCp/fcplD7xwpI8op7Sz9DDDzUvWNSzcppl09LjHhwiSvj0+gMxzM3kw5Q78E3ArPVF4LQF7DiwXHN5LwpEo9fcqDEMwTUevD1WgC24DqEr98EWPLgLsynSDx5neC0vfiTph68rxHQVZszRfjJ4mLIg2yTZcM5Ek9eXeg01OP978fPevB1Aw11W63zhiREYzKbmPIgI7xKakjiyfi1sQY8fupBBpy+MdZQRdI+LQl9xdvaYsyDrJrLa3+SDJJGfvVfv5hiTI6/itPDk+EQT0ZWn4cxJakTg7fgK5jzUMf4ctlsPj83my/mMwMeTw7/L51u3Gj3UJNqN41GmqZ7BZMeS7VrjWJB6IEe6IEe6IEe6IEe6IEe6KENPWDoAUMPGHrA0AOGHjD0gKEHDD1g6AFDDxh6wNADhh4w9IChBww9YOgBQw8YesDQA4YeMPSAoQcMPWDoAUMPGHrA0AOGHrCa/l8vuOQxcptCrcWKh/TqNoWa8pUVD8VtinHOOVa0XtyGmDR0PkFW4SEN3YaYtut4B1mFBxtnF5rseIKswsPOf1S+5hxvqc49JNlthNmUr86WjGMPtjjIkuEcgTj0kPZktwG0iTUna8aZh9Rye/RGDRPLTxEnHlKAkeswbeLe0rvI8h6S1GLoxKJJ2V1SZGkPaSS7Pei5KbWlRJbzkFjXoMmjhH2SZTzISpHdHqylxKHtZWPbQ5L2huzuG7qUEWeLxJ6HJAU8MjVmUlq7Xy2bWPeQJKnWYvQEuyj5tcZZM7HoQSbGaCi7PSxHKWOTBSiLPaQPYDFNHrYoyhyVeR4SpdhrfRCLt2TldVTjEiqLzsXIQ5KmEors9ptfX7IybI1qu9RFLaG2K2kL7I0ohIfOqQ6TZUUZDl9btFFr3OvrcDhUFPkvYmC8/wFvqZfJX8CkCwAAAABJRU5ErkJggg==;" vertex="1" parent="1">
          <mxGeometry x="-742.48" y="130" width="145.7" height="100" as="geometry" />
        </mxCell>
        <mxCell id="MX3xwKC8E9TbjmYPHGwx-16" value="ADLS 2&lt;br&gt;&lt;br&gt;daneutstashubmmltzeirnjg&lt;br&gt;&lt;br&gt;Manual ingestion&lt;br&gt;&lt;br&gt;&lt;div style=&quot;text-align: left;&quot;&gt;manual&lt;/div&gt;&lt;div style=&quot;text-align: left;&quot;&gt;&amp;nbsp;-EDP&lt;/div&gt;&lt;div style=&quot;text-align: left;&quot;&gt;&lt;span style=&quot;background-color: initial;&quot;&gt;&amp;nbsp; -&amp;lt;ProjectName&amp;gt;&lt;/span&gt;&lt;/div&gt;&lt;div style=&quot;text-align: left;&quot;&gt;&lt;span style=&quot;background-color: initial;&quot;&gt;&amp;nbsp; &amp;nbsp;-Data Quality Check&lt;/span&gt;&lt;/div&gt;&lt;div style=&quot;text-align: left;&quot;&gt;&lt;span style=&quot;background-color: initial;&quot;&gt;&amp;nbsp; &amp;nbsp; -To Be Checked&lt;/span&gt;&lt;/div&gt;&lt;div style=&quot;text-align: left;&quot;&gt;&lt;span style=&quot;background-color: initial;&quot;&gt;&amp;nbsp; &amp;nbsp; &amp;nbsp;-&lt;/span&gt;&lt;span style=&quot;background-color: rgb(240, 232, 0);&quot;&gt;file_for_dqc.csv/xlsx&lt;/span&gt;&lt;/div&gt;" style="text;strokeColor=none;align=center;fillColor=none;html=1;verticalAlign=top;whiteSpace=wrap;rounded=0;" vertex="1" parent="1">
          <mxGeometry x="-750" y="240" width="160.73" height="90" as="geometry" />
        </mxCell>
        <mxCell id="MX3xwKC8E9TbjmYPHGwx-17" value="" style="shape=image;verticalLabelPosition=bottom;labelBackgroundColor=default;verticalAlign=top;aspect=fixed;imageAspect=0;image=data:image/png,iVBORw0KGgoAAAANSUhEUgAAAQ8AAAC6CAMAAACHgTh+AAABAlBMVEX///+goaI+Pj5ZtNk5mca41DJ/ugA5OTlra2u0tbWio6R+f4BPpMlzuthPmr6ioKB3tgCbnJ210iO10iE+OzkvlsSz0RUsLCw+ODT4+Piaxh42NjaLp7RQsdglk8Pt7e3k7/Sx0S3d68vR44vG3W30+Ob4+/G71kG910v7/ffw9+Hl5eWTwxZERESSxDXb29vIyMi+vr46h6xjsdKao6c7c489T1g9VmN4rMNxrsg8a4PV5/Ciy+Hm8MXe7LPY56bW5pjN4X/D3GXi7rvA2VmQkJBdXV0fHx+SwgC72Y/F3qCZx0ilzWWt0XXN46nW6Ls9XW06f6BvjJm00+WEwt2s0OS53QFCAAAHJ0lEQVR4nO3da1faShSA4QKpCugJcomkkJKigCIICioSBAXKqfaiHvD//5UzE0DZuUBCgEzsfr90gaFlHmYmMbarnz5hGIZhGIb9HeVzudxtu9Pp3B3eHx11+/1+t3t0dEie6LRvydfybr/BDZXPtjv3/eNCVBCEWCwWVfs8SX0Qi5EvCdHjfveu08vlT9x+x+sqf9s+7BeIwvv4F6TSFPqH7eIHmy0nxfbRMZWwCKFlEYT+fbvo9ihWVLHTjS5LAVAKRz3Pz5PsYUGIOaSYNel3cm4PafmKdwXB6bzQmQj9tje32NvuyjHGxWL33ttLbo+FtWCoRYWut0Ty3TVqqAn3Htpbe2taKbNFY7duD9Nqh+ueHOOEO7cHaq0NcXgFpLcpDgLihSWz/q3jvYLbg13c7eamB5kgWbeHu7DOyi7PLRRruz3chfU26tFze7gGZcCj4kbXC7xMFTc5bNNO4cPuBjfUPvyj4SfjVlX4MGd1gnyjfdGkPmmVQzM9tJ+MS33XPF6wYqhBqbRFi2wZNHmyVKI48zm0u4fmk3GpgfZjKZrcIaUQRgKmUZqSqYruaiwT3NSQ57YT1j6j//b2G5UwnA6WMkAR+ro7ZUFGPP7Vz9Pe5xi0WEEE5e33jH3WX3mc7jPikfIbbOx3Y5FvXxxMC31jklj0Tn/PUPSx4rG9PTA48590CsKPlWLQIls/YoWOwR1UMeTzseLhTxmBkI31YSuyWpBI5OzR8A67GNpnyMOfKleMv1h8PIusyIT8Pj8fTe6bZsjsYMnDv31g+mbyTw/UxAkKffnZQ9b0lmll38eYh99/sDPncvkk+/hraxkU+ppI6fdjcc4PXcTgmIMtD3/qIDT/wHz2z8NYZTHM5KjSr4enRT9aqE40WPMgU8R/buH4XPbpz8PvX2fTMevbKv38/fD4lLXys8lK6I2DOQ8iUrYi8lY+VyxmZysW7f1NmFkNFj3IvpoKbeo2hFj1zWow6aHuI+FNfKN5er4PNVj1oCLb302uR1bU6blPi8Gwh0ri/15dz8IRKwTDQINpD5UktROqrNZEPK0G940xmPeguytZOQNfdTX3NTOVatBkYnjFY2KSKodDTlBEShEynxee8lBNCMpBeRAOnVcydhaQmDmlEr7FFN7ymM4UokJYdsK+4Hm1ksmIBjYiKXNKGKrnYwhLEp70eJ8s1OXgIOUvlweDwQ5pP6gWCpHv2/cnWXfwtge0UUuF7Q/+Q3pMWcIh9EAP9EAP9EAPGHrA0AOGHjD0gKEHDD1g6AFDDxh6wNADhh4w9IChBww9YOgBQw8YesDQA4YeMPSAoQcMPWDoAUMPGHrA0AOGHjD0gKEHDD1g6AFDDxh6wNADhh4w9IChBww9YOgBQw8YesDQA4YeMPSAoQfMjkfcrgf/oT3KzaRNj4YdEK95JC+4K8MZYubBN6S0DRCPeSSbHJew48GnA4FA/aN6xK850ovRijH24OuEI1D7oB7xK44zAzH0GHMQEKsrhmfD48LsrAE5ytykSz2IkceUIxC4sQbCp/fcplD7xwpI8op7Sz9DDDzUvWNSzcppl09LjHhwiSvj0+gMxzM3kw5Q78E3ArPVF4LQF7DiwXHN5LwpEo9fcqDEMwTUevD1WgC24DqEr98EWPLgLsynSDx5neC0vfiTph68rxHQVZszRfjJ4mLIg2yTZcM5Ek9eXeg01OP978fPevB1Aw11W63zhiREYzKbmPIgI7xKakjiyfi1sQY8fupBBpy+MdZQRdI+LQl9xdvaYsyDrJrLa3+SDJJGfvVfv5hiTI6/itPDk+EQT0ZWn4cxJakTg7fgK5jzUMf4ctlsPj83my/mMwMeTw7/L51u3Gj3UJNqN41GmqZ7BZMeS7VrjWJB6IEe6IEe6IEe6IEe6IEe6KENPWDoAUMPGHrA0AOGHjD0gKEHDD1g6AFDDxh6wNADhh4w9IChBww9YOgBQw8YesDQA4YeMPSAoQcMPWDoAUMPGHrA0AOGHrCa/l8vuOQxcptCrcWKh/TqNoWa8pUVD8VtinHOOVa0XtyGmDR0PkFW4SEN3YaYtut4B1mFBxtnF5rseIKswsPOf1S+5hxvqc49JNlthNmUr86WjGMPtjjIkuEcgTj0kPZktwG0iTUna8aZh9Rye/RGDRPLTxEnHlKAkeswbeLe0rvI8h6S1GLoxKJJ2V1SZGkPaSS7Pei5KbWlRJbzkFjXoMmjhH2SZTzISpHdHqylxKHtZWPbQ5L2huzuG7qUEWeLxJ6HJAU8MjVmUlq7Xy2bWPeQJKnWYvQEuyj5tcZZM7HoQSbGaCi7PSxHKWOTBSiLPaQPYDFNHrYoyhyVeR4SpdhrfRCLt2TldVTjEiqLzsXIQ5KmEors9ptfX7IybI1qu9RFLaG2K2kL7I0ohIfOqQ6TZUUZDl9btFFr3OvrcDhUFPkvYmC8/wFvqZfJX8CkCwAAAABJRU5ErkJggg==;" vertex="1" parent="1">
          <mxGeometry x="-444.96999999999997" y="130" width="145.7" height="100" as="geometry" />
        </mxCell>
        <mxCell id="MX3xwKC8E9TbjmYPHGwx-18" value="ADLS 2&lt;br&gt;&lt;br&gt;daneutstashubjvkwicdxdzl&lt;br&gt;&lt;br&gt;&lt;div style=&quot;text-align: left;&quot;&gt;raw&lt;/div&gt;&lt;div style=&quot;text-align: left;&quot;&gt;&amp;nbsp;-rni&lt;/div&gt;&lt;div style=&quot;text-align: left;&quot;&gt;&amp;nbsp; -EDP&lt;/div&gt;&lt;div style=&quot;text-align: left;&quot;&gt;&amp;nbsp; &amp;nbsp;-&amp;lt;ProjectName&amp;gt;&lt;/div&gt;&lt;div style=&quot;text-align: left;&quot;&gt;&amp;nbsp; &amp;nbsp; -&lt;span style=&quot;background-color: initial;&quot;&gt;Data Quality Check&lt;/span&gt;&lt;/div&gt;&lt;div style=&quot;text-align: left;&quot;&gt;&lt;span style=&quot;background-color: initial;&quot;&gt;&amp;nbsp; &amp;nbsp; &amp;nbsp;-&lt;/span&gt;&lt;span style=&quot;background-color: rgb(240, 232, 0);&quot;&gt;file_for_dqc.csv/xlsx&lt;/span&gt;&lt;/div&gt;&lt;div style=&quot;text-align: left;&quot;&gt;&lt;div style=&quot;border-color: var(--border-color);&quot;&gt;&lt;span style=&quot;background-color: initial;&quot;&gt;raw&lt;/span&gt;&lt;br&gt;&lt;/div&gt;&lt;div style=&quot;border-color: var(--border-color);&quot;&gt;&amp;nbsp;-rni&lt;/div&gt;&lt;div style=&quot;border-color: var(--border-color);&quot;&gt;&amp;nbsp; -EDP&lt;/div&gt;&lt;div style=&quot;border-color: var(--border-color);&quot;&gt;&amp;nbsp; &amp;nbsp;-&amp;lt;ProjectName&amp;gt;&lt;/div&gt;&lt;div style=&quot;border-color: var(--border-color);&quot;&gt;&amp;nbsp; &amp;nbsp; -Data Quality Check&lt;/div&gt;&lt;/div&gt;&lt;div style=&quot;text-align: left;&quot;&gt;&lt;span style=&quot;background-color: initial;&quot;&gt;&amp;nbsp; &amp;nbsp; &amp;nbsp;-&lt;/span&gt;&lt;span style=&quot;background-color: rgb(234, 107, 102);&quot;&gt;file_expectations.json&lt;/span&gt;&lt;/div&gt;&lt;div style=&quot;text-align: left;&quot;&gt;&lt;span style=&quot;background-color: initial;&quot;&gt;&lt;br&gt;&lt;/span&gt;&lt;/div&gt;&lt;div style=&quot;text-align: left;&quot;&gt;&lt;span style=&quot;background-color: initial;&quot;&gt;&lt;br&gt;&lt;/span&gt;&lt;/div&gt;&lt;div style=&quot;text-align: left;&quot;&gt;&lt;br&gt;&lt;/div&gt;" style="text;strokeColor=none;align=center;fillColor=none;html=1;verticalAlign=top;whiteSpace=wrap;rounded=0;" vertex="1" parent="1">
          <mxGeometry x="-460" y="240" width="160" height="250" as="geometry" />
        </mxCell>
        <mxCell id="MX3xwKC8E9TbjmYPHGwx-19" value="" style="shape=image;verticalLabelPosition=bottom;labelBackgroundColor=default;verticalAlign=top;aspect=fixed;imageAspect=0;image=https://azureplayer.net/wp-content/uploads/2018/12/azure-data-factory.png;imageBackground=default;" vertex="1" parent="1">
          <mxGeometry x="-576.8299999999999" y="130" width="116.83" height="100" as="geometry" />
        </mxCell>
        <mxCell id="MX3xwKC8E9TbjmYPHGwx-20" value="" style="shape=image;verticalLabelPosition=bottom;labelBackgroundColor=default;verticalAlign=top;aspect=fixed;imageAspect=0;image=data:image/png,iVBORw0KGgoAAAANSUhEUgAAAQ8AAAC6CAMAAACHgTh+AAABAlBMVEX///+goaI+Pj5ZtNk5mca41DJ/ugA5OTlra2u0tbWio6R+f4BPpMlzuthPmr6ioKB3tgCbnJ210iO10iE+OzkvlsSz0RUsLCw+ODT4+Piaxh42NjaLp7RQsdglk8Pt7e3k7/Sx0S3d68vR44vG3W30+Ob4+/G71kG910v7/ffw9+Hl5eWTwxZERESSxDXb29vIyMi+vr46h6xjsdKao6c7c489T1g9VmN4rMNxrsg8a4PV5/Ciy+Hm8MXe7LPY56bW5pjN4X/D3GXi7rvA2VmQkJBdXV0fHx+SwgC72Y/F3qCZx0ilzWWt0XXN46nW6Ls9XW06f6BvjJm00+WEwt2s0OS53QFCAAAHJ0lEQVR4nO3da1faShSA4QKpCugJcomkkJKigCIICioSBAXKqfaiHvD//5UzE0DZuUBCgEzsfr90gaFlHmYmMbarnz5hGIZhGIb9HeVzudxtu9Pp3B3eHx11+/1+t3t0dEie6LRvydfybr/BDZXPtjv3/eNCVBCEWCwWVfs8SX0Qi5EvCdHjfveu08vlT9x+x+sqf9s+7BeIwvv4F6TSFPqH7eIHmy0nxfbRMZWwCKFlEYT+fbvo9ihWVLHTjS5LAVAKRz3Pz5PsYUGIOaSYNel3cm4PafmKdwXB6bzQmQj9tje32NvuyjHGxWL33ttLbo+FtWCoRYWut0Ty3TVqqAn3Htpbe2taKbNFY7duD9Nqh+ueHOOEO7cHaq0NcXgFpLcpDgLihSWz/q3jvYLbg13c7eamB5kgWbeHu7DOyi7PLRRruz3chfU26tFze7gGZcCj4kbXC7xMFTc5bNNO4cPuBjfUPvyj4SfjVlX4MGd1gnyjfdGkPmmVQzM9tJ+MS33XPF6wYqhBqbRFi2wZNHmyVKI48zm0u4fmk3GpgfZjKZrcIaUQRgKmUZqSqYruaiwT3NSQ57YT1j6j//b2G5UwnA6WMkAR+ro7ZUFGPP7Vz9Pe5xi0WEEE5e33jH3WX3mc7jPikfIbbOx3Y5FvXxxMC31jklj0Tn/PUPSx4rG9PTA48590CsKPlWLQIls/YoWOwR1UMeTzseLhTxmBkI31YSuyWpBI5OzR8A67GNpnyMOfKleMv1h8PIusyIT8Pj8fTe6bZsjsYMnDv31g+mbyTw/UxAkKffnZQ9b0lmll38eYh99/sDPncvkk+/hraxkU+ppI6fdjcc4PXcTgmIMtD3/qIDT/wHz2z8NYZTHM5KjSr4enRT9aqE40WPMgU8R/buH4XPbpz8PvX2fTMevbKv38/fD4lLXys8lK6I2DOQ8iUrYi8lY+VyxmZysW7f1NmFkNFj3IvpoKbeo2hFj1zWow6aHuI+FNfKN5er4PNVj1oCLb302uR1bU6blPi8Gwh0ri/15dz8IRKwTDQINpD5UktROqrNZEPK0G940xmPeguytZOQNfdTX3NTOVatBkYnjFY2KSKodDTlBEShEynxee8lBNCMpBeRAOnVcydhaQmDmlEr7FFN7ymM4UokJYdsK+4Hm1ksmIBjYiKXNKGKrnYwhLEp70eJ8s1OXgIOUvlweDwQ5pP6gWCpHv2/cnWXfwtge0UUuF7Q/+Q3pMWcIh9EAP9EAP9EAPGHrA0AOGHjD0gKEHDD1g6AFDDxh6wNADhh4w9IChBww9YOgBQw8YesDQA4YeMPSAoQcMPWDoAUMPGHrA0AOGHjD0gKEHDD1g6AFDDxh6wNADhh4w9IChBww9YOgBQw8YesDQA4YeMPSAoQfMjkfcrgf/oT3KzaRNj4YdEK95JC+4K8MZYubBN6S0DRCPeSSbHJew48GnA4FA/aN6xK850ovRijH24OuEI1D7oB7xK44zAzH0GHMQEKsrhmfD48LsrAE5ytykSz2IkceUIxC4sQbCp/fcplD7xwpI8op7Sz9DDDzUvWNSzcppl09LjHhwiSvj0+gMxzM3kw5Q78E3ArPVF4LQF7DiwXHN5LwpEo9fcqDEMwTUevD1WgC24DqEr98EWPLgLsynSDx5neC0vfiTph68rxHQVZszRfjJ4mLIg2yTZcM5Ek9eXeg01OP978fPevB1Aw11W63zhiREYzKbmPIgI7xKakjiyfi1sQY8fupBBpy+MdZQRdI+LQl9xdvaYsyDrJrLa3+SDJJGfvVfv5hiTI6/itPDk+EQT0ZWn4cxJakTg7fgK5jzUMf4ctlsPj83my/mMwMeTw7/L51u3Gj3UJNqN41GmqZ7BZMeS7VrjWJB6IEe6IEe6IEe6IEe6IEe6KENPWDoAUMPGHrA0AOGHjD0gKEHDD1g6AFDDxh6wNADhh4w9IChBww9YOgBQw8YesDQA4YeMPSAoQcMPWDoAUMPGHrA0AOGHrCa/l8vuOQxcptCrcWKh/TqNoWa8pUVD8VtinHOOVa0XtyGmDR0PkFW4SEN3YaYtut4B1mFBxtnF5rseIKswsPOf1S+5hxvqc49JNlthNmUr86WjGMPtjjIkuEcgTj0kPZktwG0iTUna8aZh9Rye/RGDRPLTxEnHlKAkeswbeLe0rvI8h6S1GLoxKJJ2V1SZGkPaSS7Pei5KbWlRJbzkFjXoMmjhH2SZTzISpHdHqylxKHtZWPbQ5L2huzuG7qUEWeLxJ6HJAU8MjVmUlq7Xy2bWPeQJKnWYvQEuyj5tcZZM7HoQSbGaCi7PSxHKWOTBSiLPaQPYDFNHrYoyhyVeR4SpdhrfRCLt2TldVTjEiqLzsXIQ5KmEors9ptfX7IybI1qu9RFLaG2K2kL7I0ohIfOqQ6TZUUZDl9btFFr3OvrcDhUFPkvYmC8/wFvqZfJX8CkCwAAAABJRU5ErkJggg==;" vertex="1" parent="1">
          <mxGeometry x="139.99999999999997" y="130" width="145.7" height="100" as="geometry" />
        </mxCell>
        <mxCell id="MX3xwKC8E9TbjmYPHGwx-21" value="ADLS 2&lt;br&gt;&lt;br&gt;daneutstashubmmltzeirnjg&lt;br&gt;&lt;br&gt;&lt;div style=&quot;text-align: left;&quot;&gt;&lt;div style=&quot;border-color: var(--border-color);&quot;&gt;manual&lt;/div&gt;&lt;div style=&quot;border-color: var(--border-color);&quot;&gt;&amp;nbsp;-EDP&lt;/div&gt;&lt;div style=&quot;border-color: var(--border-color);&quot;&gt;&amp;nbsp; -&amp;lt;ProjectName&amp;gt;&lt;/div&gt;&lt;div style=&quot;border-color: var(--border-color);&quot;&gt;&lt;span style=&quot;border-color: var(--border-color); background-color: initial;&quot;&gt;&amp;nbsp; &amp;nbsp;-Data Quality Check&lt;/span&gt;&lt;/div&gt;&lt;div style=&quot;border-color: var(--border-color);&quot;&gt;&lt;span style=&quot;border-color: var(--border-color); background-color: initial;&quot;&gt;&amp;nbsp; &amp;nbsp; -Check Result&lt;/span&gt;&lt;/div&gt;&lt;div style=&quot;border-color: var(--border-color);&quot;&gt;&lt;span style=&quot;border-color: var(--border-color); background-color: initial;&quot;&gt;&amp;nbsp; &amp;nbsp; &amp;nbsp;&lt;/span&gt;-&lt;span style=&quot;border-color: var(--border-color); background-color: rgb(51, 255, 51);&quot;&gt;dqc_result.xlsx&lt;/span&gt;&lt;/div&gt;&lt;div style=&quot;border-color: var(--border-color);&quot;&gt;&lt;br&gt;&lt;/div&gt;&lt;/div&gt;" style="text;strokeColor=none;align=center;fillColor=none;html=1;verticalAlign=top;whiteSpace=wrap;rounded=0;" vertex="1" parent="1">
          <mxGeometry x="132.48" y="240" width="160.73" height="90" as="geometry" />
        </mxCell>
        <mxCell id="MX3xwKC8E9TbjmYPHGwx-22" value="" style="shape=flexArrow;endArrow=classic;html=1;rounded=0;labelBackgroundColor=#59b4d9;fillColor=#59b4d9;strokeColor=#59b4d9;" edge="1" parent="1">
          <mxGeometry width="50" height="50" relative="1" as="geometry">
            <mxPoint x="-620" y="179.5" as="sourcePoint" />
            <mxPoint x="-573.22" y="179.5" as="targetPoint" />
          </mxGeometry>
        </mxCell>
        <mxCell id="MX3xwKC8E9TbjmYPHGwx-46" value="" style="edgeStyle=orthogonalEdgeStyle;rounded=0;orthogonalLoop=1;jettySize=auto;html=1;" edge="1" parent="1" source="MX3xwKC8E9TbjmYPHGwx-28" target="MX3xwKC8E9TbjmYPHGwx-33">
          <mxGeometry relative="1" as="geometry" />
        </mxCell>
        <mxCell id="MX3xwKC8E9TbjmYPHGwx-28" value="" style="shape=image;verticalLabelPosition=bottom;labelBackgroundColor=default;verticalAlign=top;aspect=fixed;imageAspect=0;image=https://azureplayer.net/wp-content/uploads/2018/12/azure-data-factory.png;" vertex="1" parent="1">
          <mxGeometry x="5.684341886080802e-14" y="130" width="116.83" height="100" as="geometry" />
        </mxCell>
        <mxCell id="MX3xwKC8E9TbjmYPHGwx-31" value="ADF&lt;br&gt;&lt;br&gt;DAN-EU-T-ADF801-Hub-RNI-Ingestion&lt;br&gt;&lt;br&gt;&lt;div style=&quot;text-align: left;&quot;&gt;&lt;span style=&quot;background-color: initial;&quot;&gt;Tasks :&lt;/span&gt;&lt;/div&gt;&lt;div style=&quot;text-align: left;&quot;&gt;&lt;span style=&quot;background-color: initial;&quot;&gt;-Ingestion Pipeline&lt;/span&gt;&lt;/div&gt;" style="text;strokeColor=none;align=center;fillColor=none;html=1;verticalAlign=top;whiteSpace=wrap;rounded=0;" vertex="1" parent="1">
          <mxGeometry x="-578.41" y="240" width="120" height="90" as="geometry" />
        </mxCell>
        <mxCell id="MX3xwKC8E9TbjmYPHGwx-32" value="Databricks&lt;br&gt;&lt;br&gt;DAN-EU-T-ADF801-Hub-RNI-Analytical&lt;br&gt;&lt;br&gt;&lt;div style=&quot;text-align: left;&quot;&gt;&lt;span style=&quot;background-color: initial;&quot;&gt;Tasks :&lt;/span&gt;&lt;/div&gt;&lt;div style=&quot;text-align: left;&quot;&gt;&lt;span style=&quot;background-color: initial;&quot;&gt;-Perform DQC with the highlighted files&lt;/span&gt;&lt;/div&gt;" style="text;strokeColor=none;align=center;fillColor=none;html=1;verticalAlign=top;whiteSpace=wrap;rounded=0;" vertex="1" parent="1">
          <mxGeometry x="-293.82" y="240" width="113.82" height="90" as="geometry" />
        </mxCell>
        <mxCell id="MX3xwKC8E9TbjmYPHGwx-35" value="ADLS 2&lt;br&gt;&lt;br&gt;daneutstashubjvkwicdxdzl&lt;br&gt;&lt;br&gt;&lt;div style=&quot;text-align: left;&quot;&gt;raw&lt;/div&gt;&lt;div style=&quot;text-align: left;&quot;&gt;&amp;nbsp;-rni&lt;/div&gt;&lt;div style=&quot;text-align: left;&quot;&gt;&amp;nbsp; -EDP&lt;/div&gt;&lt;div style=&quot;text-align: left;&quot;&gt;&amp;nbsp; &amp;nbsp;-&amp;lt;ProjectName&amp;gt;&lt;/div&gt;&lt;div style=&quot;text-align: left;&quot;&gt;&amp;nbsp; &amp;nbsp; -&lt;span style=&quot;background-color: initial;&quot;&gt;Data Quality Check&lt;/span&gt;&lt;/div&gt;&lt;div style=&quot;text-align: left;&quot;&gt;&amp;nbsp; &amp;nbsp; &amp;nbsp;-&lt;span style=&quot;background-color: rgb(51, 255, 51);&quot;&gt;dqc_result.xlsx&lt;/span&gt;&lt;/div&gt;" style="text;strokeColor=none;align=center;fillColor=none;html=1;verticalAlign=top;whiteSpace=wrap;rounded=0;" vertex="1" parent="1">
          <mxGeometry x="-172.85000000000002" y="240" width="160" height="250" as="geometry" />
        </mxCell>
        <mxCell id="MX3xwKC8E9TbjmYPHGwx-36" value="ADF&lt;br&gt;&lt;br&gt;DAN-EU-T-ADF801-Hub-RNI-Ingestion&lt;br&gt;&lt;br&gt;&lt;div style=&quot;text-align: left;&quot;&gt;&lt;span style=&quot;background-color: initial;&quot;&gt;Tasks :&lt;/span&gt;&lt;/div&gt;&lt;div style=&quot;text-align: left;&quot;&gt;-Copy the file to the manual zone&lt;/div&gt;" style="text;strokeColor=none;align=center;fillColor=none;html=1;verticalAlign=top;whiteSpace=wrap;rounded=0;" vertex="1" parent="1">
          <mxGeometry y="240" width="120" height="90" as="geometry" />
        </mxCell>
        <mxCell id="MX3xwKC8E9TbjmYPHGwx-41" value="" style="shape=flexArrow;endArrow=classic;html=1;rounded=0;labelBackgroundColor=#59b4d9;fillColor=#59b4d9;strokeColor=#59b4d9;" edge="1" parent="1">
          <mxGeometry width="50" height="50" relative="1" as="geometry">
            <mxPoint x="-460" y="179.47" as="sourcePoint" />
            <mxPoint x="-413.22" y="179.47" as="targetPoint" />
          </mxGeometry>
        </mxCell>
        <mxCell id="MX3xwKC8E9TbjmYPHGwx-43" value="" style="shape=flexArrow;endArrow=classic;html=1;rounded=0;labelBackgroundColor=#59b4d9;fillColor=#59b4d9;strokeColor=#59b4d9;" edge="1" parent="1">
          <mxGeometry width="50" height="50" relative="1" as="geometry">
            <mxPoint x="-330" y="179.47" as="sourcePoint" />
            <mxPoint x="-283.22" y="179.47" as="targetPoint" />
          </mxGeometry>
        </mxCell>
        <mxCell id="MX3xwKC8E9TbjmYPHGwx-44" value="" style="shape=flexArrow;endArrow=classic;html=1;rounded=0;labelBackgroundColor=#59b4d9;fillColor=#59b4d9;strokeColor=#59b4d9;" edge="1" parent="1">
          <mxGeometry width="50" height="50" relative="1" as="geometry">
            <mxPoint x="-180" y="179.47" as="sourcePoint" />
            <mxPoint x="-133.22000000000003" y="179.47" as="targetPoint" />
          </mxGeometry>
        </mxCell>
        <mxCell id="MX3xwKC8E9TbjmYPHGwx-45" value="" style="shape=flexArrow;endArrow=classic;html=1;rounded=0;labelBackgroundColor=#59b4d9;fillColor=#59b4d9;strokeColor=#59b4d9;" edge="1" parent="1">
          <mxGeometry width="50" height="50" relative="1" as="geometry">
            <mxPoint x="-46.78" y="179.47" as="sourcePoint" />
            <mxPoint x="-2.842170943040401e-14" y="179.47" as="targetPoint" />
          </mxGeometry>
        </mxCell>
        <mxCell id="MX3xwKC8E9TbjmYPHGwx-47" value="" style="shape=flexArrow;endArrow=classic;html=1;rounded=0;labelBackgroundColor=#59b4d9;fillColor=#59b4d9;strokeColor=#59b4d9;" edge="1" parent="1">
          <mxGeometry width="50" height="50" relative="1" as="geometry">
            <mxPoint x="120" y="179.47" as="sourcePoint" />
            <mxPoint x="166.77999999999997" y="179.47" as="targetPoint" />
          </mxGeometry>
        </mxCell>
        <mxCell id="MX3xwKC8E9TbjmYPHGwx-48" value="&lt;font color=&quot;#ffffff&quot; style=&quot;font-size: 23px;&quot;&gt;&lt;b&gt;Data Quality Check Data Flow&lt;/b&gt;&lt;/font&gt;" style="rounded=1;whiteSpace=wrap;html=1;fillColor=#59b4d9;" vertex="1" parent="1">
          <mxGeometry x="-750" y="30" width="1030" height="60" as="geometry" />
        </mxCell>
      </root>
    </mxGraphModel>
  </diagram>
</mxfile>
